# xmcd
#
# Track frame offsets: 
#        150
#        25786
#        54629
#        74442
#        92237
#        120013
#        139786
#        168590
#        197416
#        222897
#        239773
#        269550
#        296711
#        324244
#
# Disc length: 4520 seconds
#
# Revision: 2
# Processed by: cddbd v1.4PL0 Copyright (c) Steve Scherf et al.
# Submitted via: ExactAudioCopy v0.95a3
#
DISCID=d211a60e
DTITLE=Francois Havelock - Lekel Sa Pei
DYEAR=2001
DGENRE=Ethnic
TTITLE0=Soz Sa Sanmenm
TTITLE1=Aksyon Zonm
TTITLE2=Akoz Ou Koumsa
TTITLE3=Manmzel Demonstre
TTITLE4=Welele
TTITLE5=Pa Bezwen Ou Enkyet
TTITLE6=Aksyon Fanm
TTITLE7=Lekel Sa Pei
TTITLE8=Sega Ti Therese
TTITLE9=Prov Helene
TTITLE10=Fer Mwan War
TTITLE11=Aprann Klas Ou Parol
TTITLE12=Daniella
TTITLE13=Bat Sa Triang
EXTD=
EXTT0=
EXTT1=
EXTT2=
EXTT3=
EXTT4=
EXTT5=
EXTT6=
EXTT7=
EXTT8=
EXTT9=
EXTT10=
EXTT11=
EXTT12=
EXTT13=
PLAYORDER=
